<?xml version="1.0" encoding="UTF-8" standalone="no"?>
<svg
   viewBox="0 0 384 512"
   version="1.1"
   id="svg142"
   sodipodi:docname="favicon.svg"
   inkscape:version="1.2.1 (9c6d41e410, 2022-07-14)"
   xmlns:inkscape="http://www.inkscape.org/namespaces/inkscape"
   xmlns:sodipodi="http://sodipodi.sourceforge.net/DTD/sodipodi-0.dtd"
   xmlns="http://www.w3.org/2000/svg"
   xmlns:svg="http://www.w3.org/2000/svg">
  <defs
     id="defs146" />
  <sodipodi:namedview
     id="namedview144"
     pagecolor="#505050"
     bordercolor="#eeeeee"
     borderopacity="1"
     inkscape:showpageshadow="0"
     inkscape:pageopacity="0"
     inkscape:pagecheckerboard="0"
     inkscape:deskcolor="#505050"
     showgrid="false"
     inkscape:zoom="1.609375"
     inkscape:cx="192"
     inkscape:cy="256"
     inkscape:window-width="1920"
     inkscape:window-height="1027"
     inkscape:window-x="-8"
     inkscape:window-y="-8"
     inkscape:window-maximized="1"
     inkscape:current-layer="svg142" />
  <!--! Font Awesome Pro 6.4.0 by @fontawesome - https://fontawesome.com License - https://fontawesome.com/license (Commercial License) Copyright 2023 Fonticons, Inc. -->
  <path
     d="m 160.64445,32 c 123.5,0 223.5,100.3 223.5,224 0,123.7 -100,224 -223.5,224 -60.6,0 -115.500003,-24.2 -155.8000028,-63.4 -4.99999998,-4.9 -6.3,-12.5 -3.1,-18.7 3.2,-6.2 10.0999998,-9.7 16.9999998,-8.5 9.8,1.7 19.8,2.6 30.1,2.6 96.900003,0 175.500003,-78.8 175.500003,-176 0,-65.8 -36,-123.1 -89.3,-153.3 -6.1,-3.5 -9.2,-10.5 -7.7,-17.3 1.5,-6.8 7.3,-11.9 14.3,-12.5 6.3,-0.5 12.6,-0.8 19,-0.8 z"
     id="path140"
     style="fill:#d4aa00" />
</svg>
